# xmcd
#
# Track frame offsets: 
#        150
#        32180
#        65347
#        95712
#        130775
#        165310
#
# Disc length: 2668 seconds
#
# Revision: 1
# Processed by: cddbd v1.5.2PL0 Copyright (c) Steve Scherf et al.
# Submitted via: ExactAudioCopy v0.95b4
#
DISCID=480a6a06
DTITLE=Curtis Fuller - Curtis Fuller With Red Garland
DYEAR=1957
DGENRE=Jazz
TTITLE0=Seeing Red
TTITLE1=Stormy Weather
TTITLE2=Cashmere
TTITLE3=Slenderella
TTITLE4=Moonlight Becomes You
TTITLE5=Roc and Troll
EXTD=YEAR: 1957
EXTT0=
EXTT1=
EXTT2=
EXTT3=
EXTT4=
EXTT5=
PLAYORDER=
